<svg viewBox="0 0 800 320" xmlns="http://www.w3.org/2000/svg">
  <defs>
    <linearGradient id="bg-es" x1="0" y1="0" x2="1" y2="1">
      <stop offset="0%" stop-color="#1c1010"/>
      <stop offset="100%" stop-color="#2a1a1a"/>
    </linearGradient>
    <linearGradient id="glow-es" x1="0" y1="0" x2="0" y2="1">
      <stop offset="0%" stop-color="#4a1a1a" stop-opacity="0.3"/>
      <stop offset="100%" stop-color="#1c1010" stop-opacity="0"/>
    </linearGradient>
  </defs>
  <rect width="800" height="320" fill="url(#bg-es)"/>
  <ellipse cx="400" cy="160" rx="380" ry="160" fill="url(#glow-es)"/>
  <text x="40" y="260" font-family="Georgia, 'Times New Roman', serif" font-size="180" font-weight="bold" fill="white" opacity="0.04" letter-spacing="-4">2023</text>
  <!-- Spanish Parliament (Congreso de los Diputados) facade -->
  <!-- Main building body -->
  <rect x="255" y="220" width="290" height="70" fill="white" opacity="0.06"/>
  <!-- Classical columns -->
  <rect x="268" y="205" width="7" height="85" fill="white" opacity="0.09"/>
  <rect x="283" y="205" width="7" height="85" fill="white" opacity="0.09"/>
  <rect x="298" y="205" width="7" height="85" fill="white" opacity="0.09"/>
  <rect x="313" y="205" width="7" height="85" fill="white" opacity="0.09"/>
  <rect x="328" y="205" width="7" height="85" fill="white" opacity="0.09"/>
  <rect x="343" y="205" width="7" height="85" fill="white" opacity="0.09"/>
  <rect x="358" y="205" width="7" height="85" fill="white" opacity="0.09"/>
  <rect x="373" y="205" width="7" height="85" fill="white" opacity="0.09"/>
  <rect x="388" y="205" width="7" height="85" fill="white" opacity="0.09"/>
  <rect x="403" y="205" width="7" height="85" fill="white" opacity="0.09"/>
  <rect x="418" y="205" width="7" height="85" fill="white" opacity="0.09"/>
  <rect x="433" y="205" width="7" height="85" fill="white" opacity="0.09"/>
  <rect x="448" y="205" width="7" height="85" fill="white" opacity="0.09"/>
  <rect x="463" y="205" width="7" height="85" fill="white" opacity="0.09"/>
  <rect x="478" y="205" width="7" height="85" fill="white" opacity="0.09"/>
  <rect x="493" y="205" width="7" height="85" fill="white" opacity="0.09"/>
  <rect x="508" y="205" width="7" height="85" fill="white" opacity="0.09"/>
  <rect x="523" y="205" width="7" height="85" fill="white" opacity="0.09"/>
  <!-- Entablature -->
  <rect x="253" y="200" width="294" height="7" fill="white" opacity="0.10"/>
  <!-- Triangular pediment -->
  <path d="M253 200 L400 155 L547 200 Z" fill="white" opacity="0.06"/>
  <path d="M260 199 L400 162 L540 199" fill="none" stroke="white" stroke-width="1" opacity="0.14"/>
  <!-- Steps -->
  <rect x="243" y="290" width="314" height="5" fill="white" opacity="0.06"/>
  <rect x="233" y="295" width="334" height="5" fill="white" opacity="0.05"/>
  <!-- Country tag -->
  <rect x="50" y="56" width="60" height="1.5" fill="#cc4444" opacity="0.9"/>
  <text x="50" y="44" font-family="system-ui, -apple-system, sans-serif" font-size="11" font-weight="700" fill="#e08080" letter-spacing="3">SPAIN</text>
  <!-- Main title -->
  <text x="50" y="98" font-family="Georgia, 'Times New Roman', serif" font-size="30" font-weight="bold" fill="white" opacity="0.95">Elecciones Generales</text>
  <text x="50" y="136" font-family="Georgia, 'Times New Roman', serif" font-size="30" font-weight="bold" fill="white" opacity="0.95">2023</text>
  <!-- Subtitle -->
  <text x="50" y="166" font-family="system-ui, -apple-system, sans-serif" font-size="13" fill="white" opacity="0.45">Sánchez · Feijóo · Abascal · Díaz</text>
  <!-- Spanish flag accent bar -->
  <rect x="0" y="308" width="200" height="12" fill="#AA151B" opacity="0.75"/>
  <rect x="200" y="308" width="400" height="12" fill="#F1BF00" opacity="0.75"/>
  <rect x="600" y="308" width="200" height="12" fill="#AA151B" opacity="0.75"/>
</svg>
